<?xml version="1.0" encoding="UTF-8" standalone="no"?>
<svg
   xmlns:dc="http://purl.org/dc/elements/1.1/"
   xmlns:cc="http://creativecommons.org/ns#"
   xmlns:rdf="http://www.w3.org/1999/02/22-rdf-syntax-ns#"
   xmlns:svg="http://www.w3.org/2000/svg"
   xmlns="http://www.w3.org/2000/svg"
   viewBox="0 0 324.88751 301.51251"
   height="301.51251"
   width="324.88751"
   xml:space="preserve"
   version="1.1"
   id="svg2"><metadata
     id="metadata8"><rdf:RDF><cc:Work
         rdf:about=""><dc:format>image/svg+xml</dc:format><dc:type
           rdf:resource="http://purl.org/dc/dcmitype/StillImage" /></cc:Work></rdf:RDF></metadata><defs
     id="defs6"><clipPath
       id="clipPath20"
       clipPathUnits="userSpaceOnUse"><path
         id="path22"
         d="m 1169.63,1302.26 -62.97,0 0,-47.79 62.97,0 0,47.79 z" /></clipPath><linearGradient
       id="linearGradient24"
       spreadMethod="pad"
       gradientTransform="matrix(0,-640.035,-640.035,0,1138.15,1348.04)"
       gradientUnits="userSpaceOnUse"
       y2="0"
       x2="1"
       y1="0"
       x1="0"><stop
         id="stop26"
         offset="0"
         style="stop-opacity:1;stop-color:#a91a43" /><stop
         id="stop28"
         offset="1"
         style="stop-opacity:1;stop-color:#e20879" /></linearGradient><clipPath
       id="clipPath36"
       clipPathUnits="userSpaceOnUse"><path
         id="path38"
         d="m 490.004,1180.45 c 35.676,0 53.117,-28.06 53.117,-53.46 0,-20.47 -13.273,-53.86 -52.73,-53.86 -37.922,0 -52.348,33.39 -52.348,53.1 0,23.89 15.926,54.22 51.961,54.22 z m 383.906,-0.33 c 27.332,0 50.469,-22.42 50.469,-53.13 0,-30.74 -23.137,-53.12 -50.469,-53.12 -27.301,0 -50.422,22.38 -50.422,53.12 0,30.71 23.121,53.13 50.422,53.13 z M 480.914,1014.33 c 24.652,0 50.832,9.46 61.473,29.98 l 0.734,0 0,-22.8 62.981,0 0,166.11 59.55,-166.11 60.328,0 34.891,96.86 c 3.848,-49.46 40.652,-103.3 113.039,-103.3 53.442,0 87.461,29.34 103.195,64.59 l 0,-58.15 62.975,0 0,115.74 c 0,31.84 20.48,37.92 49.67,38.7 l 0,63.32 c -36.39,0 -47.4,-19.34 -52.72,-29.58 l -0.76,0 0,22.38 -59.165,0 0,-57.76 c -15.734,35.24 -49.753,64.57 -103.195,64.57 -35.625,0 -62.519,-13.12 -81.238,-32.25 l 9.164,25.44 -65.238,0 -40.207,-131.26 -0.758,0 -40.219,131.26 -49.312,0 -15.934,0 -47.047,0 0,-22.38 -0.742,0 c -7.609,12.89 -26.953,29.58 -61.465,29.58 -56.148,0 -105.859,-43.24 -105.859,-112.28 0,-60.31 39.086,-112.66 105.859,-112.66 z" /></clipPath><linearGradient
       id="linearGradient40"
       spreadMethod="pad"
       gradientTransform="matrix(0,-640.035,-640.035,0,732.401,1348.04)"
       gradientUnits="userSpaceOnUse"
       y2="0"
       x2="1"
       y1="0"
       x1="0"><stop
         id="stop42"
         offset="0"
         style="stop-opacity:1;stop-color:#a91a43" /><stop
         id="stop44"
         offset="1"
         style="stop-opacity:1;stop-color:#e20879" /></linearGradient><clipPath
       id="clipPath52"
       clipPathUnits="userSpaceOnUse"><path
         id="path54"
         d="m 1169.63,1232.07 -62.97,0 0,-210.56 62.97,0 0,210.56 z" /></clipPath><linearGradient
       id="linearGradient56"
       spreadMethod="pad"
       gradientTransform="matrix(0,-640.035,-640.035,0,1138.15,1348.04)"
       gradientUnits="userSpaceOnUse"
       y2="0"
       x2="1"
       y1="0"
       x1="0"><stop
         id="stop58"
         offset="0"
         style="stop-opacity:1;stop-color:#a91a43" /><stop
         id="stop60"
         offset="1"
         style="stop-opacity:1;stop-color:#e20879" /></linearGradient><clipPath
       id="clipPath68"
       clipPathUnits="userSpaceOnUse"><path
         id="path70"
         d="m 1216.63,1021.51 62.99,0 0,162.78 30.34,0 0,47.78 -30.34,0 0,70.19 -62.99,0 0,-70.19 -31.09,0 0,-47.78 31.09,0 0,-162.78 z" /></clipPath><linearGradient
       id="linearGradient72"
       spreadMethod="pad"
       gradientTransform="matrix(0,-640.035,-640.035,0,1247.75,1348.04)"
       gradientUnits="userSpaceOnUse"
       y2="0"
       x2="1"
       y1="0"
       x1="0"><stop
         id="stop74"
         offset="0"
         style="stop-opacity:1;stop-color:#a91a43" /><stop
         id="stop76"
         offset="1"
         style="stop-opacity:1;stop-color:#e20879" /></linearGradient><clipPath
       id="clipPath84"
       clipPathUnits="userSpaceOnUse"><path
         id="path86"
         d="m 1426.83,1186.18 c 32.63,0 45.13,-23.53 47.8,-36.06 l -95.59,0 c 2.64,12.53 15.17,36.06 47.79,36.06 z m 0.76,-171.48 c 21.58,0 42.46,6.45 59.93,18.99 17.83,12.12 32.63,30.32 42.89,53.84 l -64.51,0 c -8.74,-10.99 -18.96,-19.72 -38.31,-19.72 -24.65,0 -45.53,14.81 -49.31,39.81 l 157.81,0 c 0.76,4.95 1.52,8.36 1.52,16.7 0,64.13 -47.04,114.95 -111.16,114.95 -64.12,0 -110.4,-54.24 -110.4,-113.04 0,-62.6 51.21,-111.53 111.54,-111.53 z" /></clipPath><linearGradient
       id="linearGradient88"
       spreadMethod="pad"
       gradientTransform="matrix(0,-640.035,-640.035,0,1426.83,1348.04)"
       gradientUnits="userSpaceOnUse"
       y2="0"
       x2="1"
       y1="0"
       x1="0"><stop
         id="stop90"
         offset="0"
         style="stop-opacity:1;stop-color:#a91a43" /><stop
         id="stop92"
         offset="1"
         style="stop-opacity:1;stop-color:#e20879" /></linearGradient><clipPath
       id="clipPath100"
       clipPathUnits="userSpaceOnUse"><path
         id="path102"
         d="m 927.574,732.211 c -29.59,0 -52.742,21.598 -52.742,54.219 0,24.289 17.078,52.75 53.492,52.75 34.903,0 53.149,-27.328 53.149,-52.75 0,-21.989 -14.457,-54.219 -53.899,-54.219 z M 658.629,808.82 c 2.629,12.539 15.16,36.051 47.793,36.051 32.621,0 45.137,-23.512 47.789,-36.051 l -95.582,0 z m 319.391,64.121 c -6.832,6.848 -24.661,25.039 -61.844,25.039 -47.008,0 -91.922,-31.351 -102.133,-87.371 -11.367,50.512 -53.461,87.371 -108.02,87.371 -52.238,0 -92.644,-36.05 -105.8,-81.218 -1.219,30.136 -6.133,42.738 -22.411,59.968 -17.062,17.84 -40.593,21.25 -55.382,21.25 -32.242,0 -53.879,-17.082 -66.782,-37.531 -16.699,31.09 -42.093,37.531 -60.695,37.531 -39.441,0 -53.101,-20.859 -58.047,-29.601 l -0.758,0 0,22.41 -58.793,0 0,-210.57 62.997,0 0,111.902 c 0,12.551 0,46.688 35.64,46.688 31.473,0 31.473,-32.629 31.473,-44 l 0,-114.59 62.996,0 0,114.929 c 0,11.774 0,43.661 34.891,43.661 32.246,0 32.246,-29.598 32.246,-46.688 l 0,-111.902 62.98,0 0,71.863 c 14.184,-46.043 57.336,-78.672 106.602,-78.672 21.601,0 42.465,6.449 59.929,18.981 17.844,12.097 32.618,30.339 42.871,53.839 l -64.507,0 c -8.719,-10.98 -18.957,-19.73 -38.293,-19.73 -24.664,0 -45.516,14.809 -49.325,39.852 l 155.504,0 c 7.746,-53.551 47.032,-92.942 103.969,-92.942 42.5,0 57.668,20.86 62.984,29.578 l 0.735,0 0,-22.769 59.953,0 0,280.75 -62.98,0 0,-88.028 z" /></clipPath><linearGradient
       id="linearGradient104"
       spreadMethod="pad"
       gradientTransform="matrix(0,-640.035,-640.035,0,659.178,1348.04)"
       gradientUnits="userSpaceOnUse"
       y2="0"
       x2="1"
       y1="0"
       x1="0"><stop
         id="stop106"
         offset="0"
         style="stop-opacity:1;stop-color:#a91a43" /><stop
         id="stop108"
         offset="1"
         style="stop-opacity:1;stop-color:#e20879" /></linearGradient><clipPath
       id="clipPath116"
       clipPathUnits="userSpaceOnUse"><path
         id="path118"
         d="m 1060.6,680.219 62.98,0 0,210.57 -62.98,0 0,-210.57 z" /></clipPath><linearGradient
       id="linearGradient120"
       spreadMethod="pad"
       gradientTransform="matrix(0,-640.035,-640.035,0,1092.09,1348.04)"
       gradientUnits="userSpaceOnUse"
       y2="0"
       x2="1"
       y1="0"
       x1="0"><stop
         id="stop122"
         offset="0"
         style="stop-opacity:1;stop-color:#a91a43" /><stop
         id="stop124"
         offset="1"
         style="stop-opacity:1;stop-color:#e20879" /></linearGradient><clipPath
       id="clipPath132"
       clipPathUnits="userSpaceOnUse"><path
         id="path134"
         d="m 1060.6,913.148 62.98,0 0,47.821 -62.98,0 0,-47.821 z" /></clipPath><linearGradient
       id="linearGradient136"
       spreadMethod="pad"
       gradientTransform="matrix(0,-640.035,-640.035,0,1092.09,1348.04)"
       gradientUnits="userSpaceOnUse"
       y2="0"
       x2="1"
       y1="0"
       x1="0"><stop
         id="stop138"
         offset="0"
         style="stop-opacity:1;stop-color:#a91a43" /><stop
         id="stop140"
         offset="1"
         style="stop-opacity:1;stop-color:#e20879" /></linearGradient><clipPath
       id="clipPath148"
       clipPathUnits="userSpaceOnUse"><path
         id="path150"
         d="m 1277.83,774.52 c 0,-33.348 -17.84,-42.848 -36.02,-42.848 -33.78,0 -33.78,27.68 -33.78,42.117 l 0,116.473 -62.97,0 0,-125.961 c 0,-28.852 2.28,-44 18.95,-64.879 18.58,-23.531 48.95,-26.551 61.86,-26.551 15.94,0 41.7,2.277 54.59,29.199 l 0.76,0 0,-22.379 59.58,0 0,210.571 -62.97,0 0,-115.742 z" /></clipPath><linearGradient
       id="linearGradient152"
       spreadMethod="pad"
       gradientTransform="matrix(0,-640.035,-640.035,0,1242.93,1348.04)"
       gradientUnits="userSpaceOnUse"
       y2="0"
       x2="1"
       y1="0"
       x1="0"><stop
         id="stop154"
         offset="0"
         style="stop-opacity:1;stop-color:#a91a43" /><stop
         id="stop156"
         offset="1"
         style="stop-opacity:1;stop-color:#e20879" /></linearGradient><clipPath
       id="clipPath164"
       clipPathUnits="userSpaceOnUse"><path
         id="path166"
         d="m 1662.94,876.73 c -17.07,17.84 -40.57,21.25 -55.38,21.25 -32.25,0 -53.87,-17.082 -66.76,-37.531 -16.7,31.09 -42.12,37.531 -60.73,37.531 -39.42,0 -53.09,-20.859 -58.02,-29.601 l -0.76,0 0,22.41 -58.81,0 0,-210.57 62.98,0 0,111.902 c 0,12.551 0,46.688 35.69,46.688 31.46,0 31.46,-32.629 31.46,-44 l 0,-114.59 62.99,0 0,114.929 c 0,11.774 0,43.661 34.9,43.661 32.23,0 32.23,-29.598 32.23,-46.688 l 0,-111.902 62.98,0 0,114.929 c 0,46.692 -3.02,60.723 -22.77,81.582 z" /></clipPath><linearGradient
       id="linearGradient168"
       spreadMethod="pad"
       gradientTransform="matrix(0,-640.035,-640.035,0,1524.09,1348.04)"
       gradientUnits="userSpaceOnUse"
       y2="0"
       x2="1"
       y1="0"
       x1="0"><stop
         id="stop170"
         offset="0"
         style="stop-opacity:1;stop-color:#a91a43" /><stop
         id="stop172"
         offset="1"
         style="stop-opacity:1;stop-color:#e20879" /></linearGradient><clipPath
       id="clipPath180"
       clipPathUnits="userSpaceOnUse"><path
         id="path182"
         d="m 277.66,1020.42 62.981,0 0,162.77 36.507,0 0,47.78 -36.507,0 0,8.35 c 0,17.84 14.019,19.73 19.339,19.73 l 26.547,0 0,47.41 -28.437,0 c -30.742,0 -80.43,-5.3 -80.43,-64.51 l 0,-10.98 -23.523,0 0,-47.78 23.523,0 0,-162.77 z" /></clipPath><linearGradient
       id="linearGradient184"
       spreadMethod="pad"
       gradientTransform="matrix(0,-640.035,-640.035,0,320.332,1348.04)"
       gradientUnits="userSpaceOnUse"
       y2="0"
       x2="1"
       y1="0"
       x1="0"><stop
         id="stop186"
         offset="0"
         style="stop-opacity:1;stop-color:#a91a43" /><stop
         id="stop188"
         offset="1"
         style="stop-opacity:1;stop-color:#e20879" /></linearGradient></defs><g
     transform="matrix(1.25,0,0,-1.25,0,301.5125)"
     id="g10"><g
       transform="scale(0.1,0.1)"
       id="g12"><path
         id="path14"
         style="fill:#ffffff;fill-opacity:1;fill-rule:nonzero;stroke:none"
         d="m 2557.95,1624.99 c -95.36,-99.34 -217.09,-174.37 -358.45,-212.04 -106.07,-28.33 -214.1,-36.6 -316.74,-20.79 -148.71,20.88 -277.84,75.91 -367.86,127.85 -361,199.38 -814.834,528.32 -1261.47,284.63 C 370,2042.7 476.57,2235.6 627.648,2412.07 251.438,2184.4 0,1771.37 0,1299.52 0,581.801 581.809,0 1299.52,0 c 717.72,0 1299.53,581.801 1299.53,1299.52 0,112.39 -14.28,221.44 -41.1,325.47" /><g
         id="g16"><g
           clip-path="url(#clipPath20)"
           id="g18"><path
             id="path30"
             style="fill:url(#linearGradient24);fill-opacity:1;fill-rule:nonzero;stroke:none"
             d="m 1106.66,1254.47 62.9688,0 0,47.793 -62.9688,0 0,-47.793 z" /></g></g><g
         id="g32"><g
           clip-path="url(#clipPath36)"
           id="g34"><path
             id="path46"
             style="fill:url(#linearGradient40);fill-opacity:1;fill-rule:nonzero;stroke:none"
             d="m 490.004,1180.45 c 35.676,0 53.117,-28.06 53.117,-53.46 0,-20.47 -13.273,-53.86 -52.73,-53.86 -37.922,0 -52.348,33.39 -52.348,53.1 0,23.89 15.926,54.22 51.961,54.22 z m 383.906,-0.33 c 27.332,0 50.469,-22.42 50.469,-53.13 0,-30.74 -23.137,-53.12 -50.469,-53.12 -27.301,0 -50.422,22.38 -50.422,53.12 0,30.71 23.121,53.13 50.422,53.13 z M 480.914,1014.33 c 24.652,0 50.832,9.46 61.473,29.98 l 0.734,0 0,-22.8 62.981,0 0,166.11 59.55,-166.11 60.328,0 34.891,96.86 c 3.848,-49.46 40.652,-103.3 113.039,-103.3 53.442,0 87.461,29.34 103.195,64.59 l 0,-58.15 62.975,0 0,115.74 c 0,31.84 20.48,37.92 49.67,38.7 l 0,63.32 c -36.39,0 -47.4,-19.34 -52.72,-29.58 l -0.76,0 0,22.38 -59.165,0 0,-57.76 c -15.734,35.24 -49.753,64.57 -103.195,64.57 -35.625,0 -62.519,-13.12 -81.238,-32.25 l 9.164,25.44 -65.238,0 -40.207,-131.26 -0.758,0 -40.219,131.26 -112.293,0 0,-22.38 -0.742,0 c -7.609,12.89 -26.953,29.58 -61.465,29.58 -56.148,0 -105.859,-43.24 -105.859,-112.28 0,-60.31 39.086,-112.66 105.859,-112.66" /></g></g><g
         id="g48"><g
           clip-path="url(#clipPath52)"
           id="g50"><path
             id="path62"
             style="fill:url(#linearGradient56);fill-opacity:1;fill-rule:nonzero;stroke:none"
             d="m 1106.66,1021.51 62.9688,0 0,210.559 -62.9688,0 0,-210.559 z" /></g></g><g
         id="g64"><g
           clip-path="url(#clipPath68)"
           id="g66"><path
             id="path78"
             style="fill:url(#linearGradient72);fill-opacity:1;fill-rule:nonzero;stroke:none"
             d="m 1216.63,1021.51 62.99,0 0,162.78 30.34,0 0,47.78 -30.34,0 0,70.19 -62.99,0 0,-70.19 -31.09,0 0,-47.78 31.09,0 0,-162.78" /></g></g><g
         id="g80"><g
           clip-path="url(#clipPath84)"
           id="g82"><path
             id="path94"
             style="fill:url(#linearGradient88);fill-opacity:1;fill-rule:nonzero;stroke:none"
             d="m 1426.83,1186.18 c 32.63,0 45.13,-23.53 47.8,-36.06 l -95.59,0 c 2.64,12.53 15.17,36.06 47.79,36.06 z m 0.76,-171.48 c 21.58,0 42.46,6.45 59.93,18.99 17.83,12.12 32.63,30.32 42.89,53.84 l -64.51,0 c -8.74,-10.99 -18.96,-19.72 -38.31,-19.72 -24.65,0 -45.53,14.81 -49.31,39.81 l 157.81,0 c 0.76,4.95 1.52,8.36 1.52,16.7 0,64.13 -47.04,114.95 -111.16,114.95 -64.12,0 -110.4,-54.24 -110.4,-113.04 0,-62.6 51.21,-111.53 111.54,-111.53" /></g></g><g
         id="g96"><g
           clip-path="url(#clipPath100)"
           id="g98"><path
             id="path110"
             style="fill:url(#linearGradient104);fill-opacity:1;fill-rule:nonzero;stroke:none"
             d="m 927.574,732.211 c -29.59,0 -52.742,21.598 -52.742,54.219 0,24.289 17.078,52.75 53.492,52.75 34.903,0 53.149,-27.328 53.149,-52.75 0,-21.989 -14.457,-54.219 -53.899,-54.219 z M 658.629,808.82 c 2.629,12.539 15.16,36.051 47.793,36.051 32.621,0 45.137,-23.512 47.789,-36.051 l -95.582,0 z m 319.391,64.121 c -6.832,6.848 -24.661,25.039 -61.844,25.039 -47.008,0 -91.922,-31.351 -102.133,-87.371 -11.367,50.512 -53.461,87.371 -108.02,87.371 -52.238,0 -92.644,-36.05 -105.8,-81.218 -1.219,30.136 -6.133,42.738 -22.411,59.968 -17.062,17.84 -40.593,21.25 -55.382,21.25 -32.242,0 -53.879,-17.082 -66.782,-37.531 -16.699,31.09 -42.093,37.531 -60.695,37.531 -39.441,0 -53.101,-20.859 -58.047,-29.601 l -0.758,0 0,22.41 -58.793,0 0,-210.57 62.997,0 0,111.902 c 0,12.551 0,46.688 35.64,46.688 31.473,0 31.473,-32.629 31.473,-44 l 0,-114.59 62.996,0 0,114.929 c 0,11.774 0,43.661 34.891,43.661 32.246,0 32.246,-29.598 32.246,-46.688 l 0,-111.902 62.98,0 0,71.863 c 14.184,-46.043 57.336,-78.672 106.602,-78.672 21.601,0 42.465,6.449 59.929,18.981 17.844,12.097 32.618,30.339 42.871,53.839 l -64.507,0 c -8.719,-10.98 -18.957,-19.73 -38.293,-19.73 -24.664,0 -45.516,14.809 -49.325,39.852 l 155.504,0 c 7.746,-53.551 47.032,-92.942 103.969,-92.942 42.5,0 57.668,20.86 62.984,29.578 l 0.735,0 0,-22.769 59.953,0 0,280.75 -62.98,0 0,-88.028" /></g></g><g
         id="g112"><g
           clip-path="url(#clipPath116)"
           id="g114"><path
             id="path126"
             style="fill:url(#linearGradient120);fill-opacity:1;fill-rule:nonzero;stroke:none"
             d="m 1060.6,680.219 62.9805,0 0,210.57 -62.9805,0 0,-210.57 z" /></g></g><g
         id="g128"><g
           clip-path="url(#clipPath132)"
           id="g130"><path
             id="path142"
             style="fill:url(#linearGradient136);fill-opacity:1;fill-rule:nonzero;stroke:none"
             d="m 1060.6,913.148 62.9805,0 0,47.8203 -62.9805,0 0,-47.8203 z" /></g></g><g
         id="g144"><g
           clip-path="url(#clipPath148)"
           id="g146"><path
             id="path158"
             style="fill:url(#linearGradient152);fill-opacity:1;fill-rule:nonzero;stroke:none"
             d="m 1277.83,774.52 c 0,-33.348 -17.84,-42.848 -36.02,-42.848 -33.78,0 -33.78,27.68 -33.78,42.117 l 0,116.473 -62.97,0 0,-125.961 c 0,-28.852 2.28,-44 18.95,-64.879 18.58,-23.531 48.95,-26.551 61.86,-26.551 15.94,0 41.7,2.277 54.59,29.199 l 0.76,0 0,-22.379 59.58,0 0,210.571 -62.97,0 0,-115.742" /></g></g><g
         id="g160"><g
           clip-path="url(#clipPath164)"
           id="g162"><path
             id="path174"
             style="fill:url(#linearGradient168);fill-opacity:1;fill-rule:nonzero;stroke:none"
             d="m 1662.94,876.73 c -17.07,17.84 -40.57,21.25 -55.38,21.25 -32.25,0 -53.87,-17.082 -66.76,-37.531 -16.7,31.09 -42.12,37.531 -60.73,37.531 -39.42,0 -53.09,-20.859 -58.02,-29.601 l -0.76,0 0,22.41 -58.81,0 0,-210.57 62.98,0 0,111.902 c 0,12.551 0,46.688 35.69,46.688 31.46,0 31.46,-32.629 31.46,-44 l 0,-114.59 62.99,0 0,114.929 c 0,11.774 0,43.661 34.9,43.661 32.23,0 32.23,-29.598 32.23,-46.688 l 0,-111.902 62.98,0 0,114.929 c 0,46.692 -3.02,60.723 -22.77,81.582" /></g></g><g
         id="g176"><g
           clip-path="url(#clipPath180)"
           id="g178"><path
             id="path190"
             style="fill:url(#linearGradient184);fill-opacity:1;fill-rule:nonzero;stroke:none"
             d="m 277.66,1020.42 62.981,0 0,162.77 36.507,0 0,47.78 -36.507,0 0,8.35 c 0,17.84 14.019,19.73 19.339,19.73 l 26.547,0 0,47.41 -28.437,0 c -30.742,0 -80.43,-5.3 -80.43,-64.51 l 0,-10.98 -23.523,0 0,-47.78 23.523,0 0,-162.77" /></g></g></g></g></svg>