<?xml version="1.0" encoding="UTF-8" standalone="no"?>
<svg
   xmlns:dc="http://purl.org/dc/elements/1.1/"
   xmlns:cc="http://creativecommons.org/ns#"
   xmlns:rdf="http://www.w3.org/1999/02/22-rdf-syntax-ns#"
   xmlns:svg="http://www.w3.org/2000/svg"
   xmlns="http://www.w3.org/2000/svg"
   viewBox="0 0 327.97501 304.38751"
   height="304.38751"
   width="327.97501"
   xml:space="preserve"
   version="1.1"
   id="svg2"><metadata
     id="metadata8"><rdf:RDF><cc:Work
         rdf:about=""><dc:format>image/svg+xml</dc:format><dc:type
           rdf:resource="http://purl.org/dc/dcmitype/StillImage" /></cc:Work></rdf:RDF></metadata><defs
     id="defs6"><clipPath
       id="clipPath18"
       clipPathUnits="userSpaceOnUse"><path
         id="path20"
         d="m 0,0 2623.84,0 0,2435 L 0,2435 0,0 Z" /></clipPath></defs><g
     transform="matrix(1.25,0,0,-1.25,0,304.3875)"
     id="g10"><g
       transform="scale(0.1,0.1)"
       id="g12"><g
         id="g14"><g
           clip-path="url(#clipPath18)"
           id="g16"><path
             id="path22"
             style="fill:#231f20;fill-opacity:1;fill-rule:nonzero;stroke:none"
             d="m 2220.48,1426.43 c -107.1,-28.58 -216.16,-36.91 -319.79,-20.98 -150.11,21.11 -280.46,76.64 -371.33,129.07 -364.46,201.28 -822.63,533.37 -1273.536,287.34 117.703,240.33 225.293,435.05 377.797,613.21 C 253.824,2205.25 0,1788.28 0,1311.94 0,587.371 587.355,0 1311.91,0 c 724.55,0 1311.93,587.371 1311.93,1311.94 0,113.44 -14.44,223.55 -41.49,328.54 -96.28,-100.3 -219.16,-176.02 -361.87,-214.05" /><path
             id="path24"
             style="fill:#ffffff;fill-opacity:1;fill-rule:nonzero;stroke:none"
             d="m 421.324,673.91 154.738,0 0,399.85 89.68,0 0,117.36 -89.68,0 0,20.52 c 0,43.83 34.45,48.46 47.504,48.46 l 65.227,0 0,116.45 -69.855,0 c -75.504,0 -197.614,-13.01 -197.614,-158.45 l 0,-26.98 -57.742,0 0,-117.36 57.742,0 0,-399.85" /><path
             id="path26"
             style="fill:#ffffff;fill-opacity:1;fill-rule:nonzero;stroke:none"
             d="m 1704.8,1181.11 c -41.92,43.84 -99.67,52.2 -136.02,52.2 -79.24,0 -132.33,-41.96 -164.02,-92.2 -41,76.36 -103.43,92.2 -149.15,92.2 -96.86,0 -130.42,-51.24 -142.56,-72.72 l -1.86,0 0,55.06 -144.452,0 0,-517.252 154.702,0 0,274.872 c 0,30.82 0,114.69 87.65,114.69 77.3,0 77.3,-80.14 77.3,-108.089 l 0,-281.473 154.74,0 0,282.332 c 0,28.91 0,107.23 85.72,107.23 79.21,0 79.21,-72.73 79.21,-114.69 l 0,-274.872 154.67,0 0,282.332 c 0,114.69 -7.41,149.13 -55.93,200.38" /><path
             id="path28"
             style="fill:#ffffff;fill-opacity:1;fill-rule:nonzero;stroke:none"
             d="m 750.684,564.309 -47.539,8.39 153.398,869.961 47.539,-8.39 -153.398,-869.961" /></g></g></g></g></svg>